<?xml version="1.0" standalone="no"?>
<!DOCTYPE svg PUBLIC "-//W3C//DTD SVG 20010904//EN"
 "http://www.w3.org/TR/2001/REC-SVG-20010904/DTD/svg10.dtd">
<svg version="1.0" xmlns="http://www.w3.org/2000/svg"
 width="300.000000pt" height="309.000000pt" viewBox="0 0 300.000000 309.000000"
 preserveAspectRatio="xMidYMid meet">
<metadata>
Created by potrace 1.10, written by Peter Selinger 2001-2011
</metadata>
<g transform="translate(0.000000,309.000000) scale(0.100000,-0.100000)"
fill="#000000" stroke="none">
<path d="M995 2497 l-520 -259 -51 -104 c-28 -57 -49 -105 -47 -107 2 -2 4
-262 6 -577 l2 -573 85 -52 c47 -29 157 -96 245 -150 88 -53 187 -114 220
-135 33 -20 143 -88 245 -150 102 -62 188 -117 191 -123 4 -5 15 -7 25 -3 11
4 52 17 92 27 71 19 125 47 357 186 213 127 402 238 435 256 19 11 85 50 146
87 61 37 121 71 133 75 18 5 21 12 17 38 -6 36 -14 213 -21 462 -3 94 -10 260
-15 370 -5 110 -9 207 -8 215 1 8 0 38 -1 65 -2 50 -2 50 -64 91 -69 46 -260
170 -442 289 -127 83 -292 190 -415 271 -41 28 -80 52 -85 54 -6 3 -244 -111
-530 -253z m651 155 c65 -44 164 -108 219 -144 55 -36 186 -121 290 -190 105
-68 227 -148 272 -176 l81 -53 6 -112 c7 -129 23 -556 32 -858 l7 -206 -59
-33 c-33 -19 -68 -39 -79 -45 -11 -7 -49 -30 -85 -52 -36 -22 -85 -51 -110
-65 -25 -14 -142 -83 -260 -153 -306 -181 -399 -235 -408 -235 -7 0 -70 38
-202 120 -8 5 -46 28 -85 51 -38 23 -92 56 -120 74 -45 28 -438 270 -603 370
l-63 39 -22 -25 c-12 -13 -30 -30 -40 -38 -17 -13 -18 -12 -13 10 3 13 8 273
10 577 4 491 7 557 21 579 9 13 20 22 23 18 4 -3 7 -249 7 -545 0 -296 4 -542
8 -546 4 -4 7 262 7 592 0 329 4 604 8 611 8 12 1009 511 1028 512 6 1 64 -34
130 -77z m-1047 -1767 c58 -36 113 -70 121 -75 150 -91 206 -126 210 -131 3
-3 31 -22 63 -40 107 -62 126 -74 144 -89 10 -9 23 -17 28 -18 16 -4 304 -182
310 -193 7 -10 -40 -31 -72 -31 -21 0 -46 14 -278 157 -60 37 -123 75 -140 85
-16 9 -57 34 -90 54 -33 20 -100 61 -150 91 -49 30 -97 59 -105 65 -8 5 -59
35 -112 67 -53 32 -97 63 -98 68 0 18 31 55 47 55 8 0 63 -29 122 -65z"/>
</g>
</svg>
